<svg id="Layer_1" data-name="Layer 1" xmlns="http://www.w3.org/2000/svg" viewBox="0 0 117 33.14"><defs><style>.cls-1{fill:#3a2e2d;}.cls-1,.cls-2{fill-rule:evenodd;}.cls-2,.cls-4{fill:#d92120;}.cls-3{fill:#382d2a;}</style></defs><title>logo_icon</title><polygon class="cls-1" points="23.59 2.12 10.49 2.12 11.56 0 24.65 0 23.59 2.12"/><path class="cls-1" d="M8.16,33.54l-2.4,0Q13.5,18,21.25,2.53l1-2.09h2.36" transform="translate(0 -0.43)"/><polyline class="cls-1" points="1.28 25.32 0 23.13 11.55 0 13.89 0"/><polygon class="cls-1" points="29.39 26.1 18.78 26.1 19.84 23.98 30.45 23.98 29.39 26.1"/><polygon class="cls-1" points="25.88 33.13 5.76 33.13 6.82 31 26.94 31 25.88 33.13"/><polyline class="cls-1" points="25.88 33.13 23.51 33.13 28.1 23.97 30.45 23.98"/><polygon class="cls-2" points="14.61 4.51 2.89 28.03 4.18 30.24 16.98 4.51 14.61 4.51"/><path class="cls-3" d="M52.13,25.71l2.81.12c.93.05,1.36.45,1.26,1.37-.17,1.47-.45,2.93-.68,4.4,0,.1-.05.2-.07.29a1.92,1.92,0,0,1-2,1.66c-.8,0-1.6,0-2.39,0H48.31a5,5,0,0,1-.67,0,1.15,1.15,0,0,1-1.15-1.3,16,16,0,0,1,.22-2.07c.16-1,.35-1.9.57-2.84a1.71,1.71,0,0,1,1.77-1.5C50,25.78,51,25.75,52.13,25.71ZM50.91,32h0c.59,0,1.19,0,1.78,0,.78,0,1-.19,1.18-.95s.34-1.8.5-2.71c.12-.66-.12-1-.82-1-1.21,0-2.43,0-3.65,0a1,1,0,0,0-1.1.91q-.3,1.43-.51,2.85c-.09.69.11.89.83.9Z" transform="translate(0 -0.43)"/><path class="cls-1" d="M66.26,26.84,65.05,28a2.1,2.1,0,0,0-2-.66c-.77,0-1.54,0-2.31,0-.92,0-1.24.29-1.4,1.19l-.42,2.42c0,.1,0,.2,0,.3,0,.57.12.74.74.76s1.29,0,1.94,0c.47,0,.94,0,1.41,0,.87,0,1.16-.31,1.19-1.16a2.73,2.73,0,0,0,0-.44l-2.68-.07a4.67,4.67,0,0,1,.18-.84.64.64,0,0,1,.42-.34,36,36,0,0,1,4.16,0c-.27,1.52-.52,3-.78,4.44a4.07,4.07,0,0,1-.7,0,14.16,14.16,0,0,0-3.56-.08c-.9,0-1.79.06-2.69.09a2.3,2.3,0,0,1-.37,0c-.7-.12-1-.44-1-1.16a13.27,13.27,0,0,1,.18-1.77c.17-1.1.36-2.2.59-3.29a1.68,1.68,0,0,1,1.72-1.47c1.71-.05,3.42,0,5.14-.06C65.43,25.78,65.76,26.3,66.26,26.84Z" transform="translate(0 -0.43)"/><path class="cls-1" d="M70.05,33.54c.06-.34.09-.61.16-.87.14-.6.23-.67.86-.68h1.12c1.17,0,2.34,0,3.51,0a1,1,0,0,0,1-.68.58.58,0,0,0-.42-.86,2.93,2.93,0,0,0-.67-.06l-3.42-.1a2.56,2.56,0,0,1-.73-.15,1,1,0,0,1-.7-1,4.81,4.81,0,0,1,.34-2.12,1.77,1.77,0,0,1,1.63-1.22c.69-.05,1.39-.09,2.08-.1h4.46c0,.21,0,.38,0,.53-.21,1-.29,1-1.3,1-1.31,0-2.63,0-4,0a1.07,1.07,0,0,0-1.24.84c-.14.37-.08.54.3.71a1.58,1.58,0,0,0,.57.13c.74,0,1.49,0,2.24.06.52,0,1,0,1.56.08a1.46,1.46,0,0,1,1.35,1.2,2.66,2.66,0,0,1-2.43,3.19C74.23,33.57,72.19,33.54,70.05,33.54Z" transform="translate(0 -0.43)"/><path class="cls-1" d="M45.4,32l-.26,1.54H37.59c.46-2.57.91-5.1,1.37-7.7h1.75l-1.05,6.08a8.18,8.18,0,0,0,1.91.08c.62,0,1.25,0,1.87,0Z" transform="translate(0 -0.43)"/><path class="cls-1" d="M68.54,33.51H66.77l1.34-7.63h1.76Z" transform="translate(0 -0.43)"/><path class="cls-4" d="M68.4,2C71,2,73.34,2,75.72,2c.67,0,.94.46.94,1.12a3,3,0,0,1-.89,2.53,2.47,2.47,0,0,1-1.54,4c-2.33.19-4.7,0-7.18,0ZM69,8.17c1.68,0,3.2,0,4.72,0,.51,0,.9-.66.83-1.24s-.46-.53-.85-.52H69.3ZM69.58,5c1.63,0,3.16,0,4.67,0,.24,0,.5-.64.64-1,0-.12-.28-.53-.44-.53-1.52,0-3,0-4.6,0Z" transform="translate(0 -0.43)"/><path class="cls-2" d="M59.65,4.27l-1,5.41h-1.6l1.37-7.75a2.17,2.17,0,0,1,2.68,1c.82,1.26,1.8,2.41,2.72,3.61.14.2.32.37.62.71l1-5.37H67a4.75,4.75,0,0,1,0,.76c-.39,2.19-.77,4.39-1.2,6.57a.85.85,0,0,1-.56.5,1.68,1.68,0,0,1-1.85-.79c-1-1.37-2.06-2.67-3.1-4C60.1,4.75,59.94,4.59,59.65,4.27Z" transform="translate(0 -0.43)"/><path class="cls-4" d="M53.77,7.91c-1.38,0-2.72,0-4,0a1.21,1.21,0,0,0-.85.58,2,2,0,0,1-2.66,1.12,2.67,2.67,0,0,1,.2-.42c1.65-2.3,3.33-4.59,4.95-6.91.5-.72,1.17-.47,1.76-.43.24,0,.54.44.66.75.8,2.1,1.56,4.22,2.33,6.34.08.2.13.42.23.78-.68-.05-1.41.11-1.8-.18S54,8.53,53.77,7.91ZM52.32,3.58,50.24,6.45h3.18Z" transform="translate(0 -0.43)"/><path class="cls-2" d="M43.76,9.72l.51-3.27H39.84l-.6,3.2H37.59L39,1.87h1.61L40.12,5h4.41c.15-.74.26-1.5.43-2.25s.39-.85,1.12-.87l.72,0c0,.16-.07.33-.09.46-.39,2.3-.79,4.6-1.22,6.89,0,.2-.36.43-.59.5A4.56,4.56,0,0,1,43.76,9.72Z" transform="translate(0 -0.43)"/><path class="cls-2" d="M85.26,3.36,84.12,9.65H82.45l1.08-6.24H80.74L81,1.87h7.3l-.21,1.49Z" transform="translate(0 -0.43)"/><path class="cls-2" d="M77.05,9.68l1.38-7.79h1.68L78.73,9.68Z" transform="translate(0 -0.43)"/><path class="cls-2" d="M68.59,17.36c-.42,1.05-.46,2.16-.85,3.23H66.26c.11-.57.21-1.11.33-1.65.28-1.31.57-2.62.85-3.93.11-.51.18-.56.82-.56l1,0a2,2,0,0,1,.22.06l1.7,4.61c.23-.26.38-.41.51-.57l2.58-3.21a8.39,8.39,0,0,1,.56-.63,1.31,1.31,0,0,1,1.14-.34c.26,0,.52.09.85.14l-1.34,6.06H74c.06-1,.49-2,.53-3.14-.16.06-.24.07-.27.11-.59.69-1.21,1.36-1.74,2.08-.67.92-1,1.09-2.45.94l-1.27-3.22Z" transform="translate(0 -0.43)"/><path class="cls-2" d="M46.65,17.11l-.78,3.58-.69-.11a3.06,3.06,0,0,0-1.67,0,1.74,1.74,0,0,1-.51.06H39.19a2.3,2.3,0,0,1-.37,0c-.93-.1-1.32-.47-1.21-1.22s.31-1.69.49-2.53a11.55,11.55,0,0,1,.35-1.28,1.61,1.61,0,0,1,1.65-1.09c1.79,0,3.58,0,5.37,0,.63,0,.82.44,1.18.73-.21.44-.67.62-1,.85a7.35,7.35,0,0,0-1.22-.42,7.54,7.54,0,0,0-1.26,0H41.27c-1,0-1.22.13-1.43.91s-.35,1.48-.5,2.22c-.08.4.12.64.63.65,1.31,0,2.63,0,3.94,0a1,1,0,0,0,.63-.35.81.81,0,0,0,.07-1H42.16c-.17-.71,0-1,.6-1C44,17.06,45.28,17.09,46.65,17.11Z" transform="translate(0 -0.43)"/><path class="cls-2" d="M115.91,16.12a3.12,3.12,0,0,0-2.16-.5c-.72,0-1.44,0-2.17,0-.93,0-1.2.19-1.37.91s-.33,1.4-.45,2.11.07.75.84.77c1.05,0,2.09,0,3.13,0s1.41-.33,1.25-1.33L112.33,18l.2-.89H117c-.2,1.19-.52,2.36-.75,3.53a1.43,1.43,0,0,1-.3,0,18.26,18.26,0,0,0-4.73-.06c-.62,0-1.25,0-1.87,0-1,0-1.4-.34-1.36-1.14a16.84,16.84,0,0,1,.82-4,1.69,1.69,0,0,1,1.73-1c1.14,0,2.29,0,3.43,0,.57,0,1.14,0,1.71,0a1.36,1.36,0,0,1,1.21.68c.07.09,0,.32-.11.41A7.34,7.34,0,0,1,115.91,16.12Z" transform="translate(0 -0.43)"/><path class="cls-2" d="M86.39,17.1l-.78,3.56-.73-.1a3.29,3.29,0,0,0-1-.08,11.11,11.11,0,0,1-2.51.15c-.7,0-1.39,0-2.09,0a5.72,5.72,0,0,1-.59,0c-1.13-.12-1.41-.35-1.26-1.25.21-1.24.46-2.47.76-3.7.19-.77.8-1.16,1.78-1.18,1.69,0,3.38,0,5.07,0a1.54,1.54,0,0,1,1.23.67c.07.07,0,.31-.12.41a6.93,6.93,0,0,1-.76.54,6.14,6.14,0,0,0-1.06-.42,5.88,5.88,0,0,0-1.19,0H80.89c-.8,0-1.14.23-1.29.84s-.35,1.49-.5,2.23c-.09.47.09.72.68.73,1.26,0,2.53,0,3.79,0a.82.82,0,0,0,.82-.6,3.6,3.6,0,0,0,.07-.7c-.89-.13-1.77,0-2.7-.1,0-.21.07-.4.12-.58a.44.44,0,0,1,.48-.3Z" transform="translate(0 -0.43)"/><path class="cls-2" d="M106.15,20.54a2.29,2.29,0,0,1-2.57-.75c-.93-1-1.9-2-2.85-3-.12-.12-.23-.26-.43-.5a9.83,9.83,0,0,0-.62,2.23c-.18.68-.32,1.36-.48,2.06H97.61l1.32-6.06a3.76,3.76,0,0,1,1.7,0,1.33,1.33,0,0,1,.65.45c1,1,2,2.05,3,3.08.16.17.34.33.61.59.47-1.42.64-2.78,1-4.12h1.59Z" transform="translate(0 -0.43)"/><path class="cls-2" d="M54.84,20.6H47.28l1.33-6.09h7.55L56,15.57c-.23,0-.44,0-.66,0H51.42c-.23,0-.45,0-.67,0-.58,0-.8.23-.85.68,0,.22,0,.43,0,.71.27,0,.54,0,.8,0h3.88l.84,0-.2.91H50.73c-1.25,0-1.49.23-1.36,1.3a9.19,9.19,0,0,0,1.82.07c.65,0,1.29,0,1.94,0h1.95Z" transform="translate(0 -0.43)"/><path class="cls-2" d="M64.47,14.51h1.71c-.28,1.19-.55,2.34-.83,3.49-.1.42-.24.85-.34,1.28-.22,1-1,1.3-2,1.33-1.69.05-3.39,0-5.08,0-1.06,0-1.51-.52-1.35-1.35.28-1.45.55-2.91.84-4.36a2.4,2.4,0,0,1,.14-.4h1.58c0,.24,0,.45-.07.66-.24,1.16-.47,2.31-.75,3.46-.11.47.09.79.74.8,1.14,0,2.29,0,3.43,0,.67,0,.89-.22,1-.77s.3-1.37.46-2.05S64.31,15.21,64.47,14.51Z" transform="translate(0 -0.43)"/><path class="cls-4" d="M96.64,20.63c-.49,0-.9,0-1.32,0a.79.79,0,0,1-.77-.49c-.31-.82-1-1-2-.94-.67,0-1.34,0-2,0a1.68,1.68,0,0,0-1.34.53l-.09.1a2.28,2.28,0,0,1-2.54.74c.14-.18.26-.36.4-.51Q89.21,17.51,91.5,15a2,2,0,0,1,2.1-.45,1.19,1.19,0,0,1,.49.57c.59,1.24,1.17,2.49,1.74,3.74C96.1,19.4,96.35,20,96.64,20.63Zm-6.06-2.52a12.35,12.35,0,0,0,3,0A5.38,5.38,0,0,0,92.49,16Z" transform="translate(0 -0.43)"/></svg>